<svg xmlns="http://www.w3.org/2000/svg" viewBox="0 0 512 512" width="512" height="512">
  <defs>
    <linearGradient id="rising" x1="0%" y1="100%" x2="100%" y2="0%">
      <stop offset="0%" stop-color="#14b8a6"/>
      <stop offset="100%" stop-color="#4ade80"/>
    </linearGradient>
    <linearGradient id="falling" x1="0%" y1="0%" x2="100%" y2="100%">
      <stop offset="0%" stop-color="#0ea5e9"/>
      <stop offset="100%" stop-color="#2dd4bf"/>
    </linearGradient>
  </defs>

  <!-- Rising wave -->
  <path d="M72 336
           C152 336 192 256 256 256
           C320 256 360 176 440 176
           L440 232
           C360 232 320 312 256 312
           C192 312 152 392 72 392
           Z"
        fill="url(#rising)"/>

  <!-- Falling wave -->
  <path d="M72 176
           C152 176 192 256 256 256
           C320 256 360 336 440 336
           L440 392
           C360 392 320 312 256 312
           C192 312 152 232 72 232
           Z"
        fill="url(#falling)"/>
</svg>
